<?xml version="1.0" encoding="UTF-8" standalone="no"?>
<!-- Generator: Adobe Illustrator 17.1.0, SVG Export Plug-In . SVG Version: 6.00 Build 0)  -->

<svg
   version="1.1"
   id="Layer_1"
   x="0px"
   y="0px"
   viewBox="0 0 723.96693 238.62825"
   enable-background="new 0 0 1200 152"
   xml:space="preserve"
   sodipodi:docname="A&amp;F vertical.svg"
   width="723.96692"
   height="238.62825"
   inkscape:version="1.2 (dc2aedaf03, 2022-05-15)"
   xmlns:inkscape="http://www.inkscape.org/namespaces/inkscape"
   xmlns:sodipodi="http://sodipodi.sourceforge.net/DTD/sodipodi-0.dtd"
   xmlns="http://www.w3.org/2000/svg"
   xmlns:svg="http://www.w3.org/2000/svg"
   xmlns:rdf="http://www.w3.org/1999/02/22-rdf-syntax-ns#"
   xmlns:cc="http://creativecommons.org/ns#"
   xmlns:dc="http://purl.org/dc/elements/1.1/"><metadata
     id="metadata47"><rdf:RDF><cc:Work
         rdf:about=""><dc:format>image/svg+xml</dc:format><dc:type
           rdf:resource="http://purl.org/dc/dcmitype/StillImage" /></cc:Work></rdf:RDF></metadata><defs
     id="defs45" /><sodipodi:namedview
     pagecolor="#ffffff"
     bordercolor="#666666"
     borderopacity="1"
     objecttolerance="10"
     gridtolerance="10"
     guidetolerance="10"
     inkscape:pageopacity="0"
     inkscape:pageshadow="2"
     inkscape:window-width="1680"
     inkscape:window-height="933"
     id="namedview43"
     showgrid="false"
     inkscape:zoom="0.76367532"
     inkscape:cx="181.35979"
     inkscape:cy="76.603235"
     inkscape:window-x="0"
     inkscape:window-y="1"
     inkscape:window-maximized="1"
     inkscape:current-layer="Layer_1"
     inkscape:showpageshadow="0"
     inkscape:pagecheckerboard="0"
     inkscape:deskcolor="#d1d1d1" /><g
     id="g6305"><path
       d="m 95.790156,100.97089 c -7.4,-1.499995 -8.2,-2.399995 -11.7,-12.199995 l -21.3,-61.9 c -2.4,-6.6 -4.2,-13.6 -6.6,-20.3000005 -0.7,-0.8 -1.5,-1.2 -2.4,-1.2 -0.3,0 -5.2,6.0000005 -10.2,7.0000005 0.4,2.4 -0.8,6 -2.8,10.9 l -20.3,52.6 c -3,8.1 -5.4,14.3 -7.3,18 -2.3,4.8 -3.8000002,6.199995 -8.1000002,6.899995 l -4.39999995,0.8 c -1.1,1.5 -0.8,3.6 0.3,4.2 5.19999995,-0.3 9.70000015,-0.4 14.70000015,-0.4 6,0.3 10.9,0.3 15.6,0.4 1.2,-0.7 1.5,-3.2 0.3,-4.2 l -4.2,-0.8 c -5.4,-0.799995 -6,-1.199995 -3,-9.799995 l 6,-17.6 c 1.5,-4 1.2,-4 5,-4 h 19.6 c 4.2,0 4.6,0 6,4 l 7,20.1 c 2,6.4 1.5,7.299995 -3.8,7.799995 l -3.2,0.4 c -0.8,0.8 -0.8,3.6 0.4,4.2 5.2,-0.3 11.7,-0.4 18,-0.4 7.7,0 13,0.3 19.1,0.4 1.1,-0.8 1.1,-3.2 -0.3,-4.2 z m -43.2,-38.599995 h -15.2 c -3.6,0 -4,0 -2.4,-4.2 l 6.2,-17.2 c 2.6,-7 3.8,-10.6 4.4,-11.7 h 0.3 c 0.8,1.1 1.6,3.8 4.2,11.7 l 6.2,17.6 c 1.1,3.7 0.5,3.8 -3.7,3.8 z"
       id="path2"
       inkscape:connector-curvature="0"
       style="fill:#000000;fill-opacity:1" /><path
       d="m 136.50008,45.170895 c -5.8,0 -10.9,2 -15.5,4.8 -0.8,0 -1.2,-0.7 -1.2,-2.6 v -24.6 c 0,-6.4 0.3,-15.5000005 0.4,-21.5000005 -0.3,-0.80000003 -1.2,-1.49999999 -2,-1.19999999 -6,2.39999999 -13.6,5.39999999 -19.200008,6.99999999 -1.100012,0.4 -0.800008,2.8000003 0,3.4000005 l 2.000008,1.5 c 3.2,2 3.4,3 3.4,12.8 v 66.5 c 0,5.4 -0.4,13.199995 -0.4,13.899995 0,0.4 0.8,1.1 1.5,1.1 0.4,0 0.8,0 1.1,-0.3 0.8,-1.1 2,-2.4 3.6,-2.4 1.9,0 8.6,4 19.6,4 19.2,0 35,-12.099995 35,-33.099995 -0.3,-16.4 -11.4,-29.3 -28.3,-29.3 z m -3.8,56.199995 c -4.2,0 -7.8,-2.299995 -9.8,-4.999995 -2.4,-3 -3.2,-8.2 -3.2,-14.7 v -18.8 c 0,-5 0.3,-7 1.6,-7.8 1.2,-0.8 4.2,-2 7.3,-2 10.5,0 19.6,9.3 19.6,26.5 -0.2,12.6 -5.5,21.799995 -15.5,21.799995 z"
       id="path4"
       inkscape:connector-curvature="0"
       style="fill:#000000;fill-opacity:1" /><path
       d="m 223.89184,88.770895 c -3.4,5.4 -8.2,7.4 -14.3,7.4 -13,0 -22.3,-10.6 -22.3,-23.8 0,-1.9 0.3,-2 3,-2 h 25.4 c 5.8,0 9.3,-0.7 10.2,-2 0.7,-1.2 0.8,-2 0.8,-3.4 0,-12.8 -11.3,-19.9 -22.1,-19.9 -19.6,0 -31.1,16 -31.1,32.7 0,16.8 11.4,29.499995 28.5,29.499995 9,0 19.9,-4.4 24.9,-16.299995 0.2,-1.3 -1.6,-2.6 -3,-2.2 z m -20.6,-37.9 c 6.4,0 9.7,4.2 9.7,9.7 0,1.5 -0.7,2.4 -1.5,3 -1.1,0.7 -3,1.1 -7.3,1.1 h -13.5 c -1.9,0 -2,-0.4 -2,-1.1 0,-3.3 4.5,-12.7 14.6,-12.7 z"
       id="path6"
       inkscape:connector-curvature="0"
       style="fill:#000000;fill-opacity:1" /><path
       d="m 270.92068,45.170895 c -5,0 -9.8,4.4 -14.4,7.7 -0.8,0 -1.5,-0.8 -1.5,-1.9 0,-1.5 0.3,-3.8 0.3,-6.6 -0.3,-0.8 -1.2,-1.5 -2,-1.5 -4.4,2.6 -12.2,5.8 -18.7,8.1 -0.7,0.8 -0.7,2.8 -0.3,3.4 l 1.9,1.1 c 3.6,2.3 3.6,4 3.6,10.6 v 21.6 c 0,10.9 -0.7,12.499995 -5.6,13.199995 l -2.6,0.4 c -1.1,1.1 -0.8,3.6 0.3,4.2 5.6,-0.3 10.5,-0.4 15.2,-0.4 5.4,0 10.5,0.3 19.2,0.4 1.2,-0.7 1.5,-3.2 0.3,-4.2 l -5.8,-0.7 c -5.2,-0.699995 -5.8,-2.299995 -5.8,-12.999995 v -20.3 c 0,-7.3 0.8,-10.6 4.2,-10.6 0.8,0 3.4,0.3 7,2.8 1.2,0.8 2.4,1.2 4,1.2 4,0 8.2,-2.8 8.2,-8.6 0.6,-3.4 -2.5,-6.9 -7.5,-6.9 z"
       id="path8"
       inkscape:connector-curvature="0"
       style="fill:#000000;fill-opacity:1" /><path
       d="m 331.40712,88.470895 c -3,4.2 -6.4,7.8 -15.9,7.8 -13.5,0 -21.1,-11.4 -21.1,-23.3 0,-13.9 8.6,-22.1 17.1,-22.1 5.8,0 10.2,4.8 13.5,9 1.1,1.5 1.9,1.6 2.8,1.6 1.2,0 3.6,-2.3 3.6,-7 0,-3.4 -1.1,-5.8 -3,-7.4 -4.2,-1.5 -8.5,-2 -12.6,-2 -23.7,0 -36.3,15.9 -36.3,33.1 0,8.6 3.4,16.3 8.6,21.3 5,4.799995 12.6,8.099995 20.5,8.099995 9.3,0 20.7,-4.2 25.8,-15.999995 -0.1,-2 -1.6,-3.1 -3,-3.1 z"
       id="path10"
       inkscape:connector-curvature="0"
       style="fill:#000000;fill-opacity:1" /><path
       d="m 378.096,45.170895 c -5,0 -9.8,4.4 -14.4,7.7 -0.8,0 -1.5,-0.8 -1.5,-1.9 0,-1.5 0.3,-3.8 0.3,-6.6 -0.3,-0.8 -1.2,-1.5 -2,-1.5 -4.4,2.6 -12.2,5.8 -18.7,8.1 -0.7,0.8 -0.7,2.8 -0.3,3.4 l 1.9,1.1 c 3.6,2.3 3.6,4 3.6,10.6 v 21.6 c 0,10.9 -0.7,12.499995 -5.6,13.199995 l -2.6,0.4 c -1.1,1.1 -0.8,3.6 0.3,4.2 5.6,-0.3 10.5,-0.4 15.2,-0.4 5.4,0 10.5,0.3 19.2,0.4 1.2,-0.7 1.5,-3.2 0.3,-4.2 l -5.8,-0.7 c -5.2,-0.699995 -5.8,-2.299995 -5.8,-12.999995 v -20.3 c 0,-7.3 0.8,-10.6 4.2,-10.6 0.8,0 3.4,0.3 7,2.8 1.2,0.8 2.4,1.2 4,1.2 4,0 8.2,-2.8 8.2,-8.6 0.6,-3.4 -2.2,-6.9 -7.5,-6.9 z"
       id="path12"
       inkscape:connector-curvature="0"
       style="fill:#000000;fill-opacity:1" /><path
       d="m 418.91948,45.170895 c -17.2,0 -32.3,12.5 -32.3,32.1 0,19.2 14.3,30.099995 31.1,30.099995 17.5,0 32.3,-10.899995 32.3,-31.899995 0.1,-19.3 -14.4,-30.3 -31.1,-30.3 z m 0.7,56.199995 c -10.6,0 -15.5,-12.999995 -15.5,-26.199995 0,-16.4 5.8,-24.1 13.5,-24.1 10.9,0 15.2,14.7 15.2,26.9 0,11.3 -3,23.399995 -13.2,23.399995 z"
       id="path14"
       inkscape:connector-curvature="0"
       style="fill:#000000;fill-opacity:1" /><path
       d="m 560.74732,100.97089 c -5,-0.8 -5.6,-2.399995 -5.6,-13.199995 v -22.9 c 0,-11.4 -5.6,-19.6 -18,-19.6 -7,0 -12.1,2.6 -18.8,7 -1.9,1.1 -2.6,1.5 -3.2,1.5 -0.7,0 -1.5,-0.8 -2.4,-2.3 -2,-2.8 -7,-6.2 -13.2,-6.2 -10.1,0 -13.9,3.6 -21.1,7.4 -0.8,-0.3 -1.5,-0.4 -1.5,-1.5 0,-1.2 0,-4 0.3,-6.9 -0.3,-0.7 -0.8,-1.2 -2,-1.2 -4.8,2.6 -12.6,6.2 -19.1,8.1 -0.7,0.8 -0.7,2.8 -0.3,3.4 l 1.9,1.1 c 3.6,2.3 3.6,4 3.6,10.6 v 21.7 c 0,10.9 -0.7,12.499995 -5.6,13.199995 l -2.6,0.4 c -1.1,1.1 -0.8,3.6 0.3,4.2 5.6,-0.3 10.5,-0.4 15.2,-0.4 5.4,0 10.5,0.3 15.6,0.4 1.2,-0.7 1.5,-3.2 0.3,-4.2 l -2.3,-0.3 c -5,-0.8 -5.6,-2.399995 -5.6,-13.499995 v -19.6 c 0,-5.8 0.3,-7 2,-9.4 1.6,-2.3 5.4,-4.6 10.5,-4.6 8.6,0 11.3,5.8 11.3,13.6 v 20.1 c 0,10.9 -0.7,12.499995 -5.6,13.499995 l -2,0.3 c -1.1,1.1 -0.8,3.6 0.3,4.2 4.8,-0.3 9.8,-0.4 14.7,-0.4 5.4,0 10.2,0.3 15.5,0.4 1.2,-0.7 1.5,-3.2 0.3,-4.2 l -1.5,-0.4 c -5,-0.8 -5.6,-2.399995 -5.6,-13.499995 v -21.7 c 0,-4.2 0.3,-5.8 1.9,-7.7 1.9,-2.3 5.6,-4.4 9.8,-4.4 9.3,0 12.1,5.8 12.1,13.6 v 20 c 0,10.9 -0.7,12.499995 -5.6,13.199995 l -2.4,0.4 c -1.1,1.1 -0.8,3.6 0.3,4.2 5.2,-0.3 10.2,-0.4 15.2,-0.4 5.4,0 10.5,0.3 16.8,0.4 0.7,-0.7 1.5,-3.2 0,-4.2 z"
       id="path16"
       inkscape:connector-curvature="0"
       style="fill:#000000;fill-opacity:1" /><path
       d="m 602.7994,45.170895 c -5.8,0 -10.9,2 -15.5,4.8 -0.8,0 -1.2,-0.7 -1.2,-2.6 v -24.6 c 0,-6.4 0.3,-15.5000005 0.4,-21.5000005 -0.3,-0.80000003 -1.2,-1.49999999 -2,-1.19999999 -6,2.39999999 -13.6,5.39999999 -19.2,6.99999999 -1.1,0.4 -0.8,2.8000003 0,3.4000005 l 2,1.5 c 3.2,2 3.4,3 3.4,12.8 v 66.500001 c 0,5.4 -0.4,13.199994 -0.4,13.899994 0,0.4 0.8,1.1 1.5,1.1 0.4,0 0.8,0 1.1,-0.3 0.8,-1.1 2,-2.4 3.6,-2.4 1.9,0 8.6,4 19.6,4 19.2,0 35,-12.099994 35,-33.099995 -0.3,-16.4 -11.1,-29.3 -28.3,-29.3 z m -3.7,56.199995 c -4.2,0 -7.8,-2.299994 -9.8,-4.999994 -2.4,-3 -3.2,-8.2 -3.2,-14.7 V 62.870895 c 0,-5 0.3,-7 1.6,-7.8 1.2,-0.8 4.2,-2 7.3,-2 10.5,0 19.6,9.3 19.6,26.500001 0,12.6 -5.6,21.799994 -15.5,21.799994 z"
       id="path18"
       inkscape:connector-curvature="0"
       style="fill:#000000;fill-opacity:1" /><path
       d="m 650.15724,25.770895 c 5.6,0 9.4,-4 9.4,-9.3 0,-5.3 -3.8,-9.3000005 -9.4,-9.3000005 -5.6,0 -9.4,4.0000005 -9.4,9.3000005 0,5.3 3.9,9.3 9.4,9.3 z"
       id="path20"
       inkscape:connector-curvature="0"
       style="fill:#000000;fill-opacity:1" /><path
       d="m 663.65724,100.97089 c -5,-0.8 -5.6,-2.399995 -5.6,-13.199995 v -25.4 c 0,-6 0.3,-13 0.4,-18 -0.4,-0.8 -1.2,-1.1 -2,-1.2 -4.2,2.4 -11.4,5.8 -19.1,8.1 -0.7,0.8 -0.7,2.8 -0.3,3.4 l 1.9,1.1 c 3.6,2.3 3.6,4 3.6,10.6 v 21.5 c 0,10.9 -0.7,12.499995 -5.6,13.199995 l -2.6,0.4 c -1.1,1.1 -0.8,3.6 0.3,4.2 5.6,-0.3 10.6,-0.4 15.5,-0.4 5.4,0 10.5,0.3 15.9,0.4 1.2,-0.7 1.5,-3.2 0.3,-4.2 z"
       id="path22"
       inkscape:connector-curvature="0"
       style="fill:#000000;fill-opacity:1" /><path
       d="m 720.96692,88.770895 c -3.4,5.4 -8.2,7.4 -14.3,7.4 -13,0 -22.3,-10.6 -22.3,-23.8 0,-1.9 0.3,-2 3,-2 h 25.4 c 5.8,0 9.3,-0.7 10.2,-2 0.7,-1.2 0.8,-2 0.8,-3.4 0,-12.8 -11.3,-19.9 -22.1,-19.9 -19.6,0 -31.1,16 -31.1,32.7 0,16.8 11.4,29.499995 28.5,29.499995 9,0 19.9,-4.4 24.9,-16.299995 0,-1.3 -1.7,-2.6 -3,-2.2 z m -21,-37.9 c 6.4,0 9.7,4.2 9.7,9.7 0,1.5 -0.7,2.4 -1.5,3 -1.1,0.7 -3,1.1 -7.3,1.1 h -13.5 c -1.9,0 -2,-0.4 -2,-1.1 0.2,-3.3 4.8,-12.7 14.6,-12.7 z"
       id="path24"
       inkscape:connector-curvature="0"
       style="fill:#000000;fill-opacity:1" /></g><g
     id="g6314"><path
       d="m 237.6068,182.60092 c -2.63551,0.3041 -12.97483,0.70956 -18.65132,0.70956 h -6.08196 c -1.11502,0.40547 -1.52049,2.02732 -0.40546,3.04098 l 3.24371,0.70956 c 3.04097,0.70956 2.63551,1.62186 0.81092,5.87923 -3.24371,7.09561 -7.09561,14.59669 -10.74478,19.46225 -5.87923,-9.12293 -10.23796,-14.19123 -18.65133,-19.86772 3.8519,-2.33141 10.64342,-4.86556 10.64342,-13.17757 0,-7.80517 -6.28469,-14.49532 -16.21855,-14.49532 -9.42703,0 -17.43493,6.69015 -17.43493,16.62401 0,7.80517 6.08195,12.26527 7.80517,13.78576 -8.312,4.25737 -16.92811,11.04889 -17.02947,22.6046 0.30409,9.02157 6.48742,19.86772 22.6046,19.86772 8.6161,0 15.71171,-3.44644 23.21279,-11.04888 1.52049,2.43278 3.85191,5.87922 5.27103,7.39971 2.02732,2.02732 7.80517,3.64917 12.97484,3.64917 5.47375,0 13.68439,-2.02732 19.05679,-8.21064 0.40546,-1.11502 -0.40547,-2.33142 -1.62186,-2.43278 -2.43278,1.62185 -5.87922,3.04098 -9.02156,3.04098 -7.90655,0 -12.97484,-4.66284 -17.73904,-11.96118 -0.81093,-1.21639 -0.81093,-2.33142 -0.3041,-3.24371 4.86557,-7.09561 9.02157,-12.97484 11.55572,-17.43494 3.8519,-6.48742 6.08195,-9.83249 11.96118,-11.04888 l 5.06829,-1.11503 c 0.6082,-0.60819 0.50683,-2.23005 -0.3041,-2.73688 z m -57.06901,-13.6844 c 4.25737,0 7.09562,4.05464 7.09562,9.93386 0,4.66284 -1.62186,8.31201 -3.64918,10.74479 -0.30409,0.3041 -0.81092,0.70956 -1.11502,0.70956 -0.3041,0 -1.11503,-0.70956 -1.92595,-1.11502 -4.86557,-3.64918 -7.50108,-6.99425 -7.50108,-11.55572 0,-5.27103 3.24371,-8.71747 7.09561,-8.71747 z m 15.81309,55.54853 c -3.44644,3.04097 -8.21064,5.06829 -12.97484,5.06829 -9.83249,0 -17.43494,-6.48742 -17.43494,-15.81308 0,-5.47376 3.04098,-11.15025 6.69015,-14.08986 0.81093,-0.70957 2.02732,-1.52049 2.63552,-1.52049 0.70956,0 7.09561,4.05463 12.36664,9.83249 3.24371,3.64917 6.28468,7.80518 9.02156,11.96118 1.41913,2.53415 1.41913,3.14234 -0.30409,4.56147 z"
       id="path26"
       inkscape:connector-curvature="0"
       style="fill:#000000;fill-opacity:1;stroke-width:1.01366" /><path
       d="m 320.04765,139.4912 h -28 c -6.4,0 -13,-0.3 -18.3,-0.4 -1.2,0.7 -1.5,3.2 -0.3,4.2 l 2,0.3 c 7,1.1 8.2,1.5 8.2,17.1 v 54.7 c 0,15.6 -1.5,16 -8.2,16.8 l -3.2,0.4 c -1.1,1.1 -0.8,3.6 0.3,4.2 6.9,-0.3 13.5,-0.4 19.9,-0.4 6.4,0 13,0.3 22.5,0.4 1.2,-0.7 1.5,-3.2 0.3,-4.2 l -6.2,-0.8 c -7,-0.7 -8.2,-1.1 -8.2,-16.7 v -20.7 c 0,-3.6 0.3,-4 3.6,-4 h 8.6 c 12.8,0 15.2,0.3 16.4,6.4 l 1.2,5.8 c 0.8,1.1 3.6,1.1 4.4,-0.3 -0.3,-4.6 -0.4,-9.8 -0.4,-15.2 0,-5.4 0.3,-10.9 0.4,-14.7 -0.8,-1.2 -3.6,-1.2 -4.4,-0.3 l -1.2,5 c -1.5,6.2 -3.6,6.4 -16.4,6.4 h -8.6 c -3.4,0 -3.6,-0.3 -3.6,-4 v -26.2 c 0,-8.2 0,-8.6 6.2,-8.6 h 7.4 c 4.8,0 8.5,0.3 12.5,1.2 5.6,1.5 8.1,5.8 9.4,14.3 1.5,0.8 4.2,0.7 4.8,-0.7 -0.3,-7 -0.3,-18 -0.3,-21.3 -3.2,1.1 -11.4,1.3 -20.8,1.3 z"
       id="path28"
       inkscape:connector-curvature="0"
       style="fill:#000000;fill-opacity:1" /><path
       d="m 359.38349,156.72824 c 5.6,0 9.4,-4 9.4,-9.3 0,-5.3 -3.8,-9.3 -9.4,-9.3 -5.6,0 -9.4,4 -9.4,9.3 0,5.3 3.8,9.3 9.4,9.3 z"
       id="path30"
       inkscape:connector-curvature="0"
       style="fill:#000000;fill-opacity:1" /><path
       d="m 372.78349,232.02824 c -5,-0.8 -5.6,-2.4 -5.6,-13.2 v -25.4 c 0,-6 0.3,-13 0.4,-18 -0.4,-0.8 -1.2,-1.1 -2,-1.2 -4.2,2.4 -11.4,5.8 -19.1,8.1 -0.7,0.8 -0.7,2.8 -0.3,3.4 l 1.9,1.1 c 3.6,2.3 3.6,4 3.6,10.6 v 21.7 c 0,10.9 -0.7,12.5 -5.6,13.2 l -2.6,0.4 c -1.1,1.1 -0.8,3.6 0.3,4.2 5.6,-0.3 10.6,-0.4 15.5,-0.4 5.4,0 10.5,0.3 15.9,0.4 1.2,-0.7 1.5,-3.2 0.3,-4.2 z"
       id="path32"
       inkscape:connector-curvature="0"
       style="fill:#000000;fill-opacity:1" /><path
       d="m 421.16561,227.32824 c -2.4,1.6 -4.2,2.6 -7,2.6 -9.4,0 -10.9,-8.2 -10.9,-17.5 v -22.6 c 0,-4.8 0.3,-5 2.8,-5 h 14 c 1.2,-0.8 1.9,-2 2,-3.8 0,-1.5 -0.3,-2.6 -1.2,-3 h -14.7 c -2.8,0 -2.8,-0.4 -2.8,-2.8 v -9 c -0.8,-1.2 -2.8,-1.6 -4.2,-0.8 -2,4 -5.20004,7 -8.10004,9.3 -3.2,2.4 -6.6,4.2 -11.7,6.2 -1.5,0.8 -1.1,3.2 0.4,4 h 5.2 c 2.4,0 2.6,0.3 2.6,5.2 v 29.9 c 0,10.2 2.4,18.4 16.40004,18.4 9,0 15.9,-4 18.7,-8.1 0.8,-1.8 0,-3 -1.5,-3 z"
       id="path34"
       inkscape:connector-curvature="0"
       style="fill:#000000;fill-opacity:1" /><path
       d="m 478.96077,219.52824 c -3,4.2 -6.4,7.8 -15.9,7.8 -13.5,0 -21.1,-11.4 -21.1,-23.3 0,-13.9 8.6,-22.1 17.1,-22.1 5.8,0 10.2,4.8 13.5,9 1.1,1.5 1.9,1.6 2.8,1.6 1.2,0 3.6,-2.3 3.6,-7 0,-3.4 -1.1,-5.8 -3,-7.4 -4.2,-1.5 -8.5,-2 -12.6,-2 -23.7,0 -36.3,15.9 -36.3,33.1 0,8.6 3.4,16.3 8.6,21.3 5,4.8 12.6,8.1 20.5,8.1 9.3,0 20.7,-4.2 25.8,-16 0,-2.2 -1.6,-3.1 -3,-3.1 z"
       id="path36"
       inkscape:connector-curvature="0"
       style="fill:#000000;fill-opacity:1" /><path
       d="m 559.25665,232.32824 -3.4,-0.4 c -5,-0.8 -5.6,-2.4 -5.6,-13.2 v -21.9 c 0,-12.5 -6.2,-20.7 -18.8,-20.7 -7.4,0 -13.6,3.2 -18.8,7 -1.1,0 -1.5,-0.8 -1.5,-2.4 v -27.3 c 0,-6.4 0.3,-15.5 0.4,-21.5 -0.3,-0.8 -1.2,-1.5 -2,-1.2 -6,2.4 -13.6,5.4 -19.2,7 -1.1,0.4 -0.8,2.8 0,3.4 l 2,1.5 c 3.2,2 3.4,3 3.4,12.8 v 63.2 c 0,10.9 -0.7,12.5 -5.6,13.2 l -3.2,0.4 c -1.1,1.1 -0.8,3.6 0.3,4.2 6.2,-0.3 11.3,-0.4 15.9,-0.4 5.4,0 10.5,0.3 15.6,0.4 1.2,-0.7 1.5,-3.2 0.3,-4.2 l -2.3,-0.3 c -5,-0.8 -5.6,-2.4 -5.6,-13.5 v -19.7 c 0,-5.8 0.3,-8.1 1.9,-9.7 1.9,-2 5.2,-4.2 10.1,-4.2 8.6,0 11.8,5.8 11.8,13 v 20.9 c 0,10.9 -0.7,12.5 -5.6,13.5 l -2.3,0.3 c -1.1,1.1 -0.8,3.6 0.3,4.2 5.2,-0.3 10.2,-0.4 15.1,-0.4 5.4,0 10.5,0.3 16.7,0.4 1.4,-0.5 1.6,-3.2 0.1,-4.4 z"
       id="path38"
       inkscape:connector-curvature="0"
       style="fill:#000000;fill-opacity:1" /></g></svg>
